<svg width="396" height="249" viewBox="0 0 396 249" fill="none" xmlns="http://www.w3.org/2000/svg">
<g filter="url(#filter0_d)">
<path d="M21.9624 30.8485C26.3422 30.8927 28.9129 28.4886 30.3441 26.0129L26.6995 24.206C25.8456 25.8174 24.0347 27.0892 21.9948 27.0686C18.335 27.0316 15.719 24.2151 15.7514 20.4352C15.7837 16.6554 18.4475 13.8921 22.1073 13.9291C24.1472 13.9497 25.9361 15.2578 26.7621 16.8863L30.4374 15.1233C29.049 12.5891 26.5195 10.1935 22.1397 10.1492C16.11 10.0883 11.4245 14.2112 11.3716 20.391C11.3189 26.5407 15.9327 30.7876 21.9624 30.8485ZM36.5604 30.6359L36.6424 21.0663C37.2803 20.1427 38.9664 19.4396 40.2264 19.4524C40.6763 19.4569 41.0061 19.4903 41.2755 19.553L41.3074 15.8331C39.5075 15.8149 37.7286 16.847 36.6678 18.0964L36.6845 16.1464L32.8747 16.108L32.7506 30.5974L36.5604 30.6359ZM50.3672 31.1354C52.6171 31.1581 54.9029 30.4912 56.3541 29.1858L54.6658 26.6486C53.7281 27.5392 52.0438 28.0322 50.8139 28.0197C48.354 27.9949 46.9267 26.5104 46.6719 24.7377L57.4413 24.8465L57.449 23.9466C57.4894 19.2367 54.6073 15.9675 50.2575 15.9235C45.8777 15.8793 42.7288 19.2376 42.6929 23.4375C42.653 28.0873 45.9574 31.0908 50.3672 31.1354ZM53.8041 22.1697L46.6645 22.0975C46.8268 20.6591 47.8609 19.0195 50.2308 19.0434C52.7506 19.0689 53.6959 20.7885 53.8041 22.1697ZM72.6812 31.0008L72.7613 21.6411C72.7971 17.4713 69.7785 16.1207 66.4487 16.0871C64.1688 16.064 61.883 16.731 60.0995 18.303L61.5765 20.9881C62.786 19.8903 64.231 19.3048 65.761 19.3203C67.6809 19.3397 68.9326 20.3124 68.92 21.7823L68.9043 23.6122C67.9541 22.4626 66.2796 21.8156 64.3297 21.7959C62.0198 21.7726 59.3092 23.0053 59.2799 26.4252C59.2521 29.6651 61.9386 31.2523 64.2485 31.2756C66.1384 31.2947 67.8543 30.622 68.8545 29.432L68.8414 30.962L72.6812 31.0008ZM65.8005 28.7112C64.3006 28.696 63.0774 27.9036 63.0892 26.5237C63.101 25.1437 64.3379 24.3462 65.8378 24.3613C67.0677 24.3737 68.2638 24.8358 68.8866 25.6822L68.8712 27.4821C68.234 28.3157 67.0305 28.7236 65.8005 28.7112ZM81.2867 31.4477C82.8766 31.4638 83.9002 31.0541 84.4745 30.5499L83.6895 27.6318C83.4774 27.8697 82.9357 28.0742 82.3657 28.0684C81.5257 28.06 81.0517 27.3651 81.0596 26.4352L81.1154 19.9254L84.0552 19.9551L84.0838 16.6252L81.1439 16.5955L81.1778 12.6357L77.368 12.5972L77.3341 16.557L74.9342 16.5328L74.9057 19.8627L77.3056 19.8869L77.2411 27.4166C77.2187 30.0265 78.6169 31.4207 81.2867 31.4477ZM88.5936 15.1107C89.8535 15.1234 90.8822 14.1138 90.893 12.8538C90.9038 11.5939 89.8923 10.5936 88.6324 10.5809C87.4025 10.5684 86.374 11.5481 86.3632 12.8081C86.3525 14.068 87.3637 15.0983 88.5936 15.1107ZM90.3761 31.1795L90.5002 16.69L86.6903 16.6515L86.5663 31.141L90.3761 31.1795ZM107.383 31.3513L102.287 23.8594L107.177 16.8585L102.917 16.8155L99.9095 21.2253L96.9477 16.7552L92.6879 16.7121L97.4873 23.811L92.2639 31.1986L96.4936 31.2413L99.8653 26.3851L103.123 31.3083L107.383 31.3513ZM124.984 31.5291C131.224 31.5921 135.608 27.6762 135.66 21.6164C135.711 15.6166 131.395 11.5828 125.126 11.5195L117.236 11.4398L117.065 31.4491L124.984 31.5291ZM124.987 27.7789L121.357 27.7423L121.464 15.2327L125.124 15.2697C129.203 15.3109 131.34 18.0626 131.31 21.5725C131.281 24.9924 128.946 27.8189 124.987 27.7789ZM145.314 32.0944C147.563 32.1172 149.849 31.4502 151.3 30.1448L149.612 27.6076C148.674 28.4982 146.99 28.9912 145.76 28.9788C143.3 28.954 141.873 27.4695 141.618 25.6968L152.388 25.8056L152.395 24.9056C152.436 20.1958 149.554 16.9265 145.204 16.8826C140.824 16.8383 137.675 20.1967 137.639 24.3965C137.599 29.0464 140.904 32.0499 145.314 32.0944ZM148.75 23.1287L141.611 23.0566C141.773 21.6182 142.807 19.9785 145.177 20.0025C147.697 20.0279 148.642 21.7476 148.75 23.1287ZM160.305 32.2459C164.325 32.2865 166.621 30.3596 166.644 27.6897C166.694 21.8399 158.069 23.5529 158.087 21.4229C158.094 20.613 158.999 20.0221 160.379 20.036C162.149 20.0539 163.793 20.8505 164.655 21.7593L166.208 19.0748C164.778 17.9203 162.835 17.0607 160.405 17.0361C156.565 16.9973 154.447 19.1061 154.426 21.536C154.377 27.2358 162.974 25.3725 162.953 27.7424C162.946 28.6424 162.16 29.2645 160.51 29.2478C158.711 29.2296 156.589 28.2181 155.518 27.1873L153.844 29.9305C155.362 31.3559 157.785 32.2204 160.305 32.2459ZM171.412 15.9472C172.672 15.96 173.7 14.9503 173.711 13.6904C173.722 12.4304 172.71 11.4301 171.45 11.4174C170.221 11.405 169.192 12.3846 169.181 13.6446C169.17 14.9046 170.182 15.9348 171.412 15.9472ZM173.194 32.016L173.318 17.5266L169.508 17.4881L169.384 31.9776L173.194 32.016ZM182.861 37.994C186.431 38.03 190.702 36.7231 190.749 31.2333L190.865 17.7038L187.055 17.6653L187.039 19.5253C185.882 18.0135 184.299 17.2775 182.559 17.2599C178.899 17.2229 176.146 19.8353 176.106 24.5751C176.064 29.4049 178.833 31.953 182.433 31.9894C184.232 32.0075 185.799 31.2133 186.952 29.7849L186.94 31.1948C186.914 34.1347 184.718 34.8926 182.888 34.8741C181.088 34.8559 179.532 34.3302 178.373 33.0584L176.64 35.771C178.456 37.3795 180.401 37.9691 182.861 37.994ZM183.691 28.6419C181.501 28.6198 180.014 27.1047 180.036 24.6148C180.057 22.1249 181.57 20.6401 183.76 20.6622C184.99 20.6746 186.364 21.3785 187.016 22.3152L186.975 27.025C186.307 27.9483 184.921 28.6543 183.691 28.6419ZM208.139 32.369L208.227 22.1394C208.251 19.3195 206.736 17.5041 203.526 17.4717C201.187 17.4481 199.377 18.5698 198.438 19.6404L198.454 17.7805L194.644 17.742L194.52 32.2315L198.33 32.2699L198.413 22.4903C199.08 21.657 200.228 20.8285 201.728 20.8437C203.347 20.8601 204.391 21.5606 204.374 23.5706L204.299 32.3302L208.139 32.369Z" fill="url(#paint0_linear)"/>
<path d="M15.6898 14.1538L8.30373 11.878L13.3697 6.71449L15.6898 14.1538Z" fill="white"/>
<path d="M10.3334 11.166L6.06544 11.6372L7.32019 8.08968L10.3334 11.166Z" fill="url(#paint1_linear)"/>
<path d="M7.15767 6.55223L4.99219 5.66453L6.44312 4.30421L7.15767 6.55223Z" fill="url(#paint2_linear)"/>
<path d="M13.17 10.9198L8.55901 5.86434L12.9028 4.04033L13.17 10.9198Z" fill="url(#paint3_linear)"/>
<path d="M130.355 28.8156L134.595 30.3852L131.057 33.8366L130.355 28.8156Z" fill="white"/>
<path d="M133.244 35.1372L132.63 39.3796L135.78 38.019L133.244 35.1372Z" fill="url(#paint4_linear)"/>
<path d="M137.111 38.1288L137.781 40.2439L139.035 38.7617L137.111 38.1288Z" fill="url(#paint5_linear)"/>
<path d="M133.595 32.3198L137.778 36.7181L139.575 32.3556L133.595 32.3198Z" fill="url(#paint6_linear)"/>
</g>
<defs>
<filter id="filter0_d" x="0.992188" y="4.04034" width="211.235" height="44.2035" filterUnits="userSpaceOnUse" color-interpolation-filters="sRGB">
<feFlood flood-opacity="0" result="BackgroundImageFix"/>
<feColorMatrix in="SourceAlpha" type="matrix" values="0 0 0 0 0 0 0 0 0 0 0 0 0 0 0 0 0 0 127 0"/>
<feOffset dy="4"/>
<feGaussianBlur stdDeviation="2"/>
<feColorMatrix type="matrix" values="0 0 0 0 0 0 0 0 0 0 0 0 0 0 0 0 0 0 0.25 0"/>
<feBlend mode="normal" in2="BackgroundImageFix" result="effect1_dropShadow"/>
<feBlend mode="normal" in="SourceGraphic" in2="effect1_dropShadow" result="shape"/>
</filter>
<linearGradient id="paint0_linear" x1="201.297" y1="81.5623" x2="200.807" y2="229.567" gradientUnits="userSpaceOnUse">
<stop stop-color="#AE0000"/>
<stop offset="1" stop-color="#0A0000" stop-opacity="0.99"/>
</linearGradient>
<linearGradient id="paint1_linear" x1="7.75935" y1="9.15503" x2="5.47781" y2="9.41623" gradientUnits="userSpaceOnUse">
<stop stop-color="#A20B0B"/>
<stop offset="1" stop-color="#4D0303" stop-opacity="0.87"/>
<stop offset="1" stop-color="#A00404" stop-opacity="0.87"/>
</linearGradient>
<linearGradient id="paint2_linear" x1="6.39989" y1="4.92529" x2="5.22452" y2="4.49786" gradientUnits="userSpaceOnUse">
<stop stop-color="#A20B0B"/>
<stop offset="1" stop-color="#4D0303" stop-opacity="0.87"/>
<stop offset="1" stop-color="#A00404" stop-opacity="0.87"/>
</linearGradient>
<linearGradient id="paint3_linear" x1="12.4009" y1="5.64212" x2="9.45979" y2="3.63408" gradientUnits="userSpaceOnUse">
<stop stop-color="#A20B0B"/>
<stop offset="1" stop-color="#4D0303" stop-opacity="0.87"/>
<stop offset="1" stop-color="#A00404" stop-opacity="0.87"/>
</linearGradient>
<linearGradient id="paint4_linear" x1="134.873" y1="37.6195" x2="134.662" y2="39.8993" gradientUnits="userSpaceOnUse">
<stop stop-color="#A20B0B"/>
<stop offset="1" stop-color="#4D0303" stop-opacity="0.87"/>
<stop offset="1" stop-color="#A00404" stop-opacity="0.87"/>
</linearGradient>
<linearGradient id="paint5_linear" x1="138.492" y1="38.8252" x2="138.97" y2="39.9035" gradientUnits="userSpaceOnUse">
<stop stop-color="#A20B0B"/>
<stop offset="1" stop-color="#4D0303" stop-opacity="0.87"/>
<stop offset="1" stop-color="#A00404" stop-opacity="0.87"/>
</linearGradient>
<linearGradient id="paint6_linear" x1="138.155" y1="32.9059" x2="140.151" y2="35.448" gradientUnits="userSpaceOnUse">
<stop stop-color="#A20B0B"/>
<stop offset="1" stop-color="#4D0303" stop-opacity="0.87"/>
<stop offset="1" stop-color="#A00404" stop-opacity="0.87"/>
</linearGradient>
</defs>
</svg>
