<svg width="160" height="113" viewBox="0 0 160 113" fill="none" xmlns="http://www.w3.org/2000/svg">
<path d="M17.7 39.7C14.6 39.7 12.3167 40.75 10.85 42.85C9.38333 44.95 8.63333 47.7833 8.6 51.35C9.43333 50.4167 10.6333 49.55 12.2 48.75C13.7667 47.9167 15.5 47.5 17.4 47.5C20.5333 47.5 23.15 48.55 25.25 50.65C27.3833 52.7167 28.45 55.4833 28.45 58.95C28.45 62.3833 27.3 65.15 25 67.25C22.7333 69.35 19.8667 70.4 16.4 70.4C10.8 70.4 6.93333 67.9 4.8 62.9C3.6 60.0333 3 56.8 3 53.2C3 49.6 3.38333 46.6 4.15 44.2C4.91667 41.8 5.96667 39.9 7.3 38.5C9.9 35.7667 13.0833 34.4 16.85 34.4C20.65 34.4 24.0833 35.5833 27.15 37.95L24.2 42.3C23.4333 41.6333 22.4 41.0333 21.1 40.5C19.8333 39.9667 18.7 39.7 17.7 39.7ZM16.6 52.7C14.6 52.7 12.9167 53.2667 11.55 54.4C10.2167 55.5 9.55 56.95 9.55 58.75C9.55 60.5167 10.2 62.05 11.5 63.35C12.8 64.6167 14.4333 65.25 16.4 65.25C18.3667 65.25 20 64.6833 21.3 63.55C22.6 62.3833 23.25 60.9167 23.25 59.15C23.25 57.35 22.65 55.8333 21.45 54.6C20.25 53.3333 18.6333 52.7 16.6 52.7ZM41.7059 42.85C40.3392 45.25 39.6559 48.4 39.6559 52.3C39.6559 56.2 40.3392 59.35 41.7059 61.75C43.1059 64.15 45.2725 65.35 48.2059 65.35C51.1392 65.35 53.2725 64.1667 54.6059 61.8C55.9725 59.4 56.6559 56.2333 56.6559 52.3C56.6559 48.3667 55.9725 45.2167 54.6059 42.85C53.2725 40.45 51.1392 39.25 48.2059 39.25C45.2725 39.25 43.1059 40.45 41.7059 42.85ZM37.5059 65.5C35.1392 62.2 33.9559 57.8 33.9559 52.3C33.9559 46.8 35.1392 42.4167 37.5059 39.15C39.8725 35.85 43.4392 34.2 48.2059 34.2C52.9725 34.2 56.5392 35.85 58.9059 39.15C61.2725 42.4167 62.4559 46.8 62.4559 52.3C62.4559 57.8 61.2725 62.2 58.9059 65.5C56.5392 68.7667 52.9725 70.4 48.2059 70.4C43.4392 70.4 39.8725 68.7667 37.5059 65.5ZM76.1297 42.85C74.763 45.25 74.0797 48.4 74.0797 52.3C74.0797 56.2 74.763 59.35 76.1297 61.75C77.5297 64.15 79.6964 65.35 82.6297 65.35C85.563 65.35 87.6964 64.1667 89.0297 61.8C90.3964 59.4 91.0797 56.2333 91.0797 52.3C91.0797 48.3667 90.3964 45.2167 89.0297 42.85C87.6964 40.45 85.563 39.25 82.6297 39.25C79.6964 39.25 77.5297 40.45 76.1297 42.85ZM71.9297 65.5C69.563 62.2 68.3797 57.8 68.3797 52.3C68.3797 46.8 69.563 42.4167 71.9297 39.15C74.2964 35.85 77.863 34.2 82.6297 34.2C87.3964 34.2 90.963 35.85 93.3297 39.15C95.6964 42.4167 96.8797 46.8 96.8797 52.3C96.8797 57.8 95.6964 62.2 93.3297 65.5C90.963 68.7667 87.3964 70.4 82.6297 70.4C77.863 70.4 74.2964 68.7667 71.9297 65.5ZM111.804 62.5V53H102.254V48.3H111.804V38.9H116.304V48.3H125.854V53H116.304V62.5H111.804Z" fill="#CF0000"/>
<path d="M8.052 96.12C9.62133 96.12 10.9633 96.6627 12.078 97.748C13.1927 98.8333 13.75 100.278 13.75 102.082C13.75 103.886 13.1927 105.353 12.078 106.482C10.978 107.611 9.68733 108.176 8.206 108.176C6.73933 108.176 5.41933 107.531 4.246 106.24V112.268H1.782V96.296H4.246V98.342C5.214 96.8607 6.48267 96.12 8.052 96.12ZM4.202 102.17C4.202 103.285 4.53933 104.201 5.214 104.92C5.88867 105.624 6.71 105.976 7.678 105.976C8.646 105.976 9.48933 105.624 10.208 104.92C10.9267 104.216 11.286 103.307 11.286 102.192C11.286 101.063 10.934 100.131 10.23 99.398C9.526 98.65 8.68267 98.276 7.7 98.276C6.71733 98.276 5.88867 98.65 5.214 99.398C4.53933 100.131 4.202 101.055 4.202 102.17ZM19.2913 104.92C19.9953 105.624 20.8826 105.976 21.9533 105.976C23.0239 105.976 23.9039 105.624 24.5933 104.92C25.2973 104.201 25.6493 103.277 25.6493 102.148C25.6493 101.019 25.2973 100.102 24.5933 99.398C23.9039 98.6793 23.0239 98.32 21.9533 98.32C20.8826 98.32 19.9953 98.6793 19.2913 99.398C18.6019 100.102 18.2573 101.019 18.2573 102.148C18.2573 103.277 18.6019 104.201 19.2913 104.92ZM26.3533 106.438C25.1799 107.597 23.7133 108.176 21.9533 108.176C20.1933 108.176 18.7266 107.597 17.5533 106.438C16.3799 105.265 15.7933 103.835 15.7933 102.148C15.7933 100.461 16.3799 99.0387 17.5533 97.88C18.7266 96.7067 20.1933 96.12 21.9533 96.12C23.7133 96.12 25.1799 96.7067 26.3533 97.88C27.5266 99.0387 28.1133 100.461 28.1133 102.148C28.1133 103.835 27.5266 105.265 26.3533 106.438ZM39.2528 104.502C39.2528 105.617 38.8495 106.511 38.0428 107.186C37.2361 107.846 36.2021 108.176 34.9408 108.176C34.0901 108.176 33.2028 108.022 32.2788 107.714C31.3695 107.406 30.5628 106.973 29.8588 106.416L31.0468 104.502C32.4108 105.529 33.7308 106.042 35.0068 106.042C35.5641 106.042 36.0041 105.917 36.3268 105.668C36.6495 105.404 36.8108 105.074 36.8108 104.678C36.8108 104.091 36.0335 103.563 34.4788 103.094C34.3615 103.05 34.2735 103.021 34.2148 103.006C31.7801 102.346 30.5628 101.246 30.5628 99.706C30.5628 98.6207 30.9808 97.7553 31.8168 97.11C32.6675 96.45 33.7675 96.12 35.1168 96.12C36.4661 96.12 37.7421 96.516 38.9448 97.308L38.0208 99.134C37.0675 98.5033 36.0335 98.188 34.9188 98.188C34.3321 98.188 33.8555 98.298 33.4888 98.518C33.1221 98.7233 32.9388 99.0387 32.9388 99.464C32.9388 99.8453 33.1295 100.124 33.5108 100.3C33.7748 100.432 34.1415 100.557 34.6108 100.674C35.0948 100.791 35.5201 100.909 35.8868 101.026C36.2535 101.143 36.6055 101.275 36.9428 101.422C37.2948 101.569 37.6688 101.774 38.0648 102.038C38.8568 102.566 39.2528 103.387 39.2528 104.502ZM42.0437 108.55V96.296H44.5077V108.638C44.5077 109.87 44.1337 110.845 43.3857 111.564C42.6524 112.297 41.7577 112.664 40.7017 112.664C39.6604 112.664 38.7071 112.275 37.8417 111.498L38.9857 109.65C39.4844 110.134 39.9831 110.376 40.4817 110.376C40.9951 110.376 41.3837 110.215 41.6477 109.892C41.9117 109.569 42.0437 109.122 42.0437 108.55ZM42.1537 93.964C41.8457 93.656 41.6917 93.2893 41.6917 92.864C41.6917 92.4387 41.8457 92.072 42.1537 91.764C42.4617 91.456 42.8284 91.302 43.2537 91.302C43.6791 91.302 44.0457 91.456 44.3537 91.764C44.6617 92.072 44.8157 92.4387 44.8157 92.864C44.8157 93.2893 44.6617 93.656 44.3537 93.964C44.0457 94.272 43.6791 94.426 43.2537 94.426C42.8284 94.426 42.4617 94.272 42.1537 93.964ZM58.9708 103.226H49.7968C49.8555 104.077 50.2442 104.766 50.9628 105.294C51.6815 105.807 52.5028 106.064 53.4268 106.064C54.8935 106.064 56.0082 105.602 56.7708 104.678L58.1788 106.218C56.9175 107.523 55.2748 108.176 53.2508 108.176C51.6082 108.176 50.2075 107.633 49.0488 106.548C47.9048 105.448 47.3328 103.981 47.3328 102.148C47.3328 100.3 47.9195 98.8333 49.0928 97.748C50.2662 96.6627 51.6448 96.12 53.2288 96.12C54.8275 96.12 56.1842 96.604 57.2988 97.572C58.4135 98.5253 58.9708 99.8453 58.9708 101.532V103.226ZM49.7968 101.29H56.5068C56.5068 100.307 56.1988 99.552 55.5828 99.024C54.9668 98.496 54.2042 98.232 53.2948 98.232C52.4002 98.232 51.5935 98.5107 50.8748 99.068C50.1562 99.6107 49.7968 100.351 49.7968 101.29ZM64.6305 98.276V104.216C64.6305 104.773 64.7772 105.221 65.0705 105.558C65.3638 105.881 65.7745 106.042 66.3025 106.042C66.8305 106.042 67.3365 105.785 67.8205 105.272L68.8325 107.01C67.9672 107.787 67.0065 108.176 65.9505 108.176C64.9092 108.176 64.0145 107.817 63.2665 107.098C62.5332 106.365 62.1665 105.382 62.1665 104.15V98.276H60.6925V96.296H62.1665V92.622H64.6305V96.296H67.7105V98.276H64.6305ZM73.2538 108H70.7898V96.296H73.2538V108ZM70.9438 93.964C70.6358 93.656 70.4818 93.2893 70.4818 92.864C70.4818 92.4387 70.6358 92.072 70.9438 91.764C71.2518 91.456 71.6185 91.302 72.0438 91.302C72.4691 91.302 72.8358 91.456 73.1438 91.764C73.4518 92.072 73.6058 92.4387 73.6058 92.864C73.6058 93.2893 73.4518 93.656 73.1438 93.964C72.8358 94.272 72.4691 94.426 72.0438 94.426C71.6185 94.426 71.2518 94.272 70.9438 93.964ZM79.8629 98.276V104.216C79.8629 104.773 80.0096 105.221 80.3029 105.558C80.5963 105.881 81.0069 106.042 81.5349 106.042C82.0629 106.042 82.5689 105.785 83.0529 105.272L84.0649 107.01C83.1996 107.787 82.2389 108.176 81.1829 108.176C80.1416 108.176 79.2469 107.817 78.4989 107.098C77.7656 106.365 77.3989 105.382 77.3989 104.15V98.276H75.9249V96.296H77.3989V92.622H79.8629V96.296H82.9429V98.276H79.8629ZM96.9122 103.226H87.7382C87.7969 104.077 88.1856 104.766 88.9042 105.294C89.6229 105.807 90.4442 106.064 91.3682 106.064C92.8349 106.064 93.9496 105.602 94.7122 104.678L96.1202 106.218C94.8589 107.523 93.2162 108.176 91.1922 108.176C89.5496 108.176 88.1489 107.633 86.9902 106.548C85.8462 105.448 85.2742 103.981 85.2742 102.148C85.2742 100.3 85.8609 98.8333 87.0342 97.748C88.2076 96.6627 89.5862 96.12 91.1702 96.12C92.7689 96.12 94.1256 96.604 95.2402 97.572C96.3549 98.5253 96.9122 99.8453 96.9122 101.532V103.226ZM87.7382 101.29H94.4482C94.4482 100.307 94.1402 99.552 93.5242 99.024C92.9082 98.496 92.1456 98.232 91.2362 98.232C90.3416 98.232 89.5349 98.5107 88.8162 99.068C88.0976 99.6107 87.7382 100.351 87.7382 101.29ZM102.086 108H99.6218V91.676H102.086V108ZM105.659 108.55V96.296H108.123V108.638C108.123 109.87 107.749 110.845 107.001 111.564C106.268 112.297 105.373 112.664 104.317 112.664C103.276 112.664 102.322 112.275 101.457 111.498L102.601 109.65C103.1 110.134 103.598 110.376 104.097 110.376C104.61 110.376 104.999 110.215 105.263 109.892C105.527 109.569 105.659 109.122 105.659 108.55ZM105.769 93.964C105.461 93.656 105.307 93.2893 105.307 92.864C105.307 92.4387 105.461 92.072 105.769 91.764C106.077 91.456 106.444 91.302 106.869 91.302C107.294 91.302 107.661 91.456 107.969 91.764C108.277 92.072 108.431 92.4387 108.431 92.864C108.431 93.2893 108.277 93.656 107.969 93.964C107.661 94.272 107.294 94.426 106.869 94.426C106.444 94.426 106.077 94.272 105.769 93.964ZM121.178 108H118.934V106.438C117.966 107.597 116.668 108.176 115.04 108.176C113.823 108.176 112.811 107.831 112.004 107.142C111.212 106.453 110.816 105.536 110.816 104.392C110.816 103.233 111.241 102.368 112.092 101.796C112.943 101.224 114.094 100.938 115.546 100.938H118.736V100.498C118.736 98.9433 117.871 98.166 116.14 98.166C115.055 98.166 113.925 98.562 112.752 99.354L111.652 97.814C113.075 96.6847 114.688 96.12 116.492 96.12C117.871 96.12 118.993 96.472 119.858 97.176C120.738 97.8653 121.178 98.958 121.178 100.454V108ZM118.714 103.644V102.654H115.942C114.167 102.654 113.28 103.211 113.28 104.326C113.28 104.898 113.5 105.338 113.94 105.646C114.38 105.939 114.989 106.086 115.766 106.086C116.558 106.086 117.247 105.866 117.834 105.426C118.421 104.986 118.714 104.392 118.714 103.644Z" fill="#5E5858"/>
</svg>
