<svg width="160" height="113" viewBox="0 0 160 113" fill="none" xmlns="http://www.w3.org/2000/svg">
<path d="M24.3 35V40.35H9.55V48.95C11.0167 48.15 12.6833 47.75 14.55 47.75C17.8167 47.75 20.6333 48.7333 23 50.7C25.3667 52.6667 26.55 55.3333 26.55 58.7C26.55 62.0667 25.3167 64.8667 22.85 67.1C20.3833 69.3 17.35 70.4 13.75 70.4C9.05 70.4 5.3 68.8333 2.5 65.7L5.65 61.4C5.91667 61.6667 6.26667 61.9833 6.7 62.35C7.16667 62.7167 8.1 63.2167 9.5 63.85C10.9 64.45 12.4333 64.75 14.1 64.75C15.7667 64.75 17.2833 64.25 18.65 63.25C20.0167 62.25 20.7 60.8 20.7 58.9C20.7 56.9667 19.9667 55.4833 18.5 54.45C17.0667 53.3833 15.2333 52.85 13 52.85C10.8 52.85 8.7 53.4 6.7 54.5L4.2 51.8V35H24.3ZM39.6551 42.85C38.2884 45.25 37.6051 48.4 37.6051 52.3C37.6051 56.2 38.2884 59.35 39.6551 61.75C41.0551 64.15 43.2217 65.35 46.1551 65.35C49.0884 65.35 51.2217 64.1667 52.5551 61.8C53.9217 59.4 54.6051 56.2333 54.6051 52.3C54.6051 48.3667 53.9217 45.2167 52.5551 42.85C51.2217 40.45 49.0884 39.25 46.1551 39.25C43.2217 39.25 41.0551 40.45 39.6551 42.85ZM35.4551 65.5C33.0884 62.2 31.9051 57.8 31.9051 52.3C31.9051 46.8 33.0884 42.4167 35.4551 39.15C37.8217 35.85 41.3884 34.2 46.1551 34.2C50.9217 34.2 54.4884 35.85 56.8551 39.15C59.2217 42.4167 60.4051 46.8 60.4051 52.3C60.4051 57.8 59.2217 62.2 56.8551 65.5C54.4884 68.7667 50.9217 70.4 46.1551 70.4C41.3884 70.4 37.8217 68.7667 35.4551 65.5ZM74.0789 42.85C72.7122 45.25 72.0289 48.4 72.0289 52.3C72.0289 56.2 72.7122 59.35 74.0789 61.75C75.4789 64.15 77.6456 65.35 80.5789 65.35C83.5122 65.35 85.6456 64.1667 86.9789 61.8C88.3456 59.4 89.0289 56.2333 89.0289 52.3C89.0289 48.3667 88.3456 45.2167 86.9789 42.85C85.6456 40.45 83.5122 39.25 80.5789 39.25C77.6456 39.25 75.4789 40.45 74.0789 42.85ZM69.8789 65.5C67.5122 62.2 66.3289 57.8 66.3289 52.3C66.3289 46.8 67.5122 42.4167 69.8789 39.15C72.2456 35.85 75.8122 34.2 80.5789 34.2C85.3456 34.2 88.9122 35.85 91.2789 39.15C93.6456 42.4167 94.8289 46.8 94.8289 52.3C94.8289 57.8 93.6456 62.2 91.2789 65.5C88.9122 68.7667 85.3456 70.4 80.5789 70.4C75.8122 70.4 72.2456 68.7667 69.8789 65.5ZM109.753 62.5V53H100.203V48.3H109.753V38.9H114.253V48.3H123.803V53H114.253V62.5H109.753Z" fill="#CF0000"/>
<path d="M14.052 96.12C15.6213 96.12 16.9633 96.6627 18.078 97.748C19.1927 98.8333 19.75 100.278 19.75 102.082C19.75 103.886 19.1927 105.353 18.078 106.482C16.978 107.611 15.6873 108.176 14.206 108.176C12.7393 108.176 11.4193 107.531 10.246 106.24V112.268H7.782V96.296H10.246V98.342C11.214 96.8607 12.4827 96.12 14.052 96.12ZM10.202 102.17C10.202 103.285 10.5393 104.201 11.214 104.92C11.8887 105.624 12.71 105.976 13.678 105.976C14.646 105.976 15.4893 105.624 16.208 104.92C16.9267 104.216 17.286 103.307 17.286 102.192C17.286 101.063 16.934 100.131 16.23 99.398C15.526 98.65 14.6827 98.276 13.7 98.276C12.7173 98.276 11.8887 98.65 11.214 99.398C10.5393 100.131 10.202 101.055 10.202 102.17ZM28.7013 98.606C27.4839 98.606 26.5673 99.002 25.9513 99.794C25.3353 100.586 25.0273 101.649 25.0273 102.984V108H22.5633V96.296H25.0273V98.65C25.4233 97.9167 25.9586 97.3153 26.6333 96.846C27.3226 96.3767 28.0486 96.1347 28.8113 96.12L28.8333 98.606C28.7893 98.606 28.7453 98.606 28.7013 98.606ZM40.682 108H38.438V106.438C37.47 107.597 36.172 108.176 34.544 108.176C33.3266 108.176 32.3146 107.831 31.508 107.142C30.716 106.453 30.32 105.536 30.32 104.392C30.32 103.233 30.7453 102.368 31.596 101.796C32.4466 101.224 33.598 100.938 35.05 100.938H38.24V100.498C38.24 98.9433 37.3746 98.166 35.644 98.166C34.5586 98.166 33.4293 98.562 32.256 99.354L31.156 97.814C32.5786 96.6847 34.192 96.12 35.996 96.12C37.3746 96.12 38.4966 96.472 39.362 97.176C40.242 97.8653 40.682 98.958 40.682 100.454V108ZM38.218 103.644V102.654H35.446C33.6713 102.654 32.784 103.211 32.784 104.326C32.784 104.898 33.004 105.338 33.444 105.646C33.884 105.939 34.4926 106.086 35.27 106.086C36.062 106.086 36.7513 105.866 37.338 105.426C37.9246 104.986 38.218 104.392 38.218 103.644ZM47.0192 98.276V104.216C47.0192 104.773 47.1658 105.221 47.4592 105.558C47.7525 105.881 48.1632 106.042 48.6912 106.042C49.2192 106.042 49.7252 105.785 50.2092 105.272L51.2212 107.01C50.3558 107.787 49.3952 108.176 48.3392 108.176C47.2978 108.176 46.4032 107.817 45.6552 107.098C44.9218 106.365 44.5552 105.382 44.5552 104.15V98.276H43.0812V96.296H44.5552V92.622H47.0192V96.296H50.0992V98.276H47.0192ZM55.6425 108H53.1785V96.296H55.6425V108ZM53.3325 93.964C53.0245 93.656 52.8705 93.2893 52.8705 92.864C52.8705 92.4387 53.0245 92.072 53.3325 91.764C53.6405 91.456 54.0072 91.302 54.4325 91.302C54.8578 91.302 55.2245 91.456 55.5325 91.764C55.8405 92.072 55.9945 92.4387 55.9945 92.864C55.9945 93.2893 55.8405 93.656 55.5325 93.964C55.2245 94.272 54.8578 94.426 54.4325 94.426C54.0072 94.426 53.6405 94.272 53.3325 93.964ZM62.2516 98.276V104.216C62.2516 104.773 62.3983 105.221 62.6916 105.558C62.9849 105.881 63.3956 106.042 63.9236 106.042C64.4516 106.042 64.9576 105.785 65.4416 105.272L66.4536 107.01C65.5883 107.787 64.6276 108.176 63.5716 108.176C62.5303 108.176 61.6356 107.817 60.8876 107.098C60.1543 106.365 59.7876 105.382 59.7876 104.15V98.276H58.3136V96.296H59.7876V92.622H62.2516V96.296H65.3316V98.276H62.2516ZM79.3009 103.226H70.1269C70.1856 104.077 70.5742 104.766 71.2929 105.294C72.0116 105.807 72.8329 106.064 73.7569 106.064C75.2236 106.064 76.3382 105.602 77.1009 104.678L78.5089 106.218C77.2476 107.523 75.6049 108.176 73.5809 108.176C71.9382 108.176 70.5376 107.633 69.3789 106.548C68.2349 105.448 67.6629 103.981 67.6629 102.148C67.6629 100.3 68.2496 98.8333 69.4229 97.748C70.5962 96.6627 71.9749 96.12 73.5589 96.12C75.1576 96.12 76.5142 96.604 77.6289 97.572C78.7436 98.5253 79.3009 99.8453 79.3009 101.532V103.226ZM70.1269 101.29H76.8369C76.8369 100.307 76.5289 99.552 75.9129 99.024C75.2969 98.496 74.5342 98.232 73.6249 98.232C72.7302 98.232 71.9236 98.5107 71.2049 99.068C70.4862 99.6107 70.1269 100.351 70.1269 101.29ZM84.4745 108H82.0105V91.676H84.4745V108ZM88.0476 108.55V96.296H90.5116V108.638C90.5116 109.87 90.1376 110.845 89.3896 111.564C88.6563 112.297 87.7616 112.664 86.7056 112.664C85.6643 112.664 84.711 112.275 83.8456 111.498L84.9896 109.65C85.4883 110.134 85.987 110.376 86.4856 110.376C86.999 110.376 87.3876 110.215 87.6516 109.892C87.9156 109.569 88.0476 109.122 88.0476 108.55ZM88.1576 93.964C87.8496 93.656 87.6956 93.2893 87.6956 92.864C87.6956 92.4387 87.8496 92.072 88.1576 91.764C88.4656 91.456 88.8323 91.302 89.2576 91.302C89.683 91.302 90.0496 91.456 90.3576 91.764C90.6656 92.072 90.8196 92.4387 90.8196 92.864C90.8196 93.2893 90.6656 93.656 90.3576 93.964C90.0496 94.272 89.683 94.426 89.2576 94.426C88.8323 94.426 88.4656 94.272 88.1576 93.964ZM103.567 108H101.323V106.438C100.355 107.597 99.0567 108.176 97.4287 108.176C96.2114 108.176 95.1994 107.831 94.3927 107.142C93.6007 106.453 93.2047 105.536 93.2047 104.392C93.2047 103.233 93.6301 102.368 94.4807 101.796C95.3314 101.224 96.4827 100.938 97.9347 100.938H101.125V100.498C101.125 98.9433 100.259 98.166 98.5287 98.166C97.4434 98.166 96.3141 98.562 95.1407 99.354L94.0407 97.814C95.4634 96.6847 97.0767 96.12 98.8807 96.12C100.259 96.12 101.381 96.472 102.247 97.176C103.127 97.8653 103.567 98.958 103.567 100.454V108ZM101.103 103.644V102.654H98.3307C96.5561 102.654 95.6687 103.211 95.6687 104.326C95.6687 104.898 95.8887 105.338 96.3287 105.646C96.7687 105.939 97.3774 106.086 98.1547 106.086C98.9467 106.086 99.6361 105.866 100.223 105.426C100.809 104.986 101.103 104.392 101.103 103.644Z" fill="#5E5858"/>
</svg>
