<svg width="160" height="113" viewBox="0 0 160 113" fill="none" xmlns="http://www.w3.org/2000/svg">
<path d="M3.85 40.3V35.05H24.3V39.65L15.85 49.1C19.05 49.2 21.55 50.2167 23.35 52.15C25.15 54.05 26.05 56.3333 26.05 59C26.05 62.5667 24.8333 65.3667 22.4 67.4C20 69.4333 16.9 70.45 13.1 70.45C9.3 70.45 5.58333 69.2333 1.95 66.8L4.45 62.05C7.31667 64.05 10.3167 65.05 13.45 65.05C15.4833 65.05 17.15 64.5833 18.45 63.65C19.7833 62.6833 20.45 61.3167 20.45 59.55C20.45 57.75 19.7167 56.3167 18.25 55.25C16.7833 54.1833 14.75 53.65 12.15 53.65C10.85 53.65 9.6 53.8333 8.4 54.2V49.7L16.5 40.3H3.85ZM39.6063 42.85C38.2396 45.25 37.5563 48.4 37.5563 52.3C37.5563 56.2 38.2396 59.35 39.6063 61.75C41.0063 64.15 43.1729 65.35 46.1063 65.35C49.0396 65.35 51.1729 64.1667 52.5063 61.8C53.8729 59.4 54.5563 56.2333 54.5563 52.3C54.5563 48.3667 53.8729 45.2167 52.5063 42.85C51.1729 40.45 49.0396 39.25 46.1063 39.25C43.1729 39.25 41.0063 40.45 39.6063 42.85ZM35.4063 65.5C33.0396 62.2 31.8563 57.8 31.8563 52.3C31.8563 46.8 33.0396 42.4167 35.4063 39.15C37.7729 35.85 41.3396 34.2 46.1063 34.2C50.8729 34.2 54.4396 35.85 56.8063 39.15C59.1729 42.4167 60.3563 46.8 60.3563 52.3C60.3563 57.8 59.1729 62.2 56.8063 65.5C54.4396 68.7667 50.8729 70.4 46.1063 70.4C41.3396 70.4 37.7729 68.7667 35.4063 65.5ZM74.0301 42.85C72.6634 45.25 71.9801 48.4 71.9801 52.3C71.9801 56.2 72.6634 59.35 74.0301 61.75C75.4301 64.15 77.5967 65.35 80.5301 65.35C83.4634 65.35 85.5967 64.1667 86.9301 61.8C88.2967 59.4 88.9801 56.2333 88.9801 52.3C88.9801 48.3667 88.2967 45.2167 86.9301 42.85C85.5967 40.45 83.4634 39.25 80.5301 39.25C77.5967 39.25 75.4301 40.45 74.0301 42.85ZM69.8301 65.5C67.4634 62.2 66.2801 57.8 66.2801 52.3C66.2801 46.8 67.4634 42.4167 69.8301 39.15C72.1967 35.85 75.7634 34.2 80.5301 34.2C85.2967 34.2 88.8634 35.85 91.2301 39.15C93.5967 42.4167 94.7801 46.8 94.7801 52.3C94.7801 57.8 93.5967 62.2 91.2301 65.5C88.8634 68.7667 85.2967 70.4 80.5301 70.4C75.7634 70.4 72.1967 68.7667 69.8301 65.5ZM109.704 62.5V53H100.154V48.3H109.704V38.9H114.204V48.3H123.754V53H114.204V62.5H109.704Z" fill="#CF0000"/>
<path d="M1.408 98.452V96.34H10.56V98.562L3.982 105.866H10.912V108H0.968V105.602L7.37 98.452H1.408ZM23.1663 108H20.9223V106.438C19.9543 107.597 18.6563 108.176 17.0283 108.176C15.811 108.176 14.799 107.831 13.9923 107.142C13.2003 106.453 12.8043 105.536 12.8043 104.392C12.8043 103.233 13.2297 102.368 14.0803 101.796C14.931 101.224 16.0823 100.938 17.5343 100.938H20.7243V100.498C20.7243 98.9433 19.859 98.166 18.1283 98.166C17.043 98.166 15.9137 98.562 14.7403 99.354L13.6403 97.814C15.063 96.6847 16.6763 96.12 18.4803 96.12C19.859 96.12 20.981 96.472 21.8463 97.176C22.7263 97.8653 23.1663 98.958 23.1663 100.454V108ZM20.7023 103.644V102.654H17.9303C16.1557 102.654 15.2683 103.211 15.2683 104.326C15.2683 104.898 15.4883 105.338 15.9283 105.646C16.3683 105.939 16.977 106.086 17.7543 106.086C18.5463 106.086 19.2357 105.866 19.8223 105.426C20.409 104.986 20.7023 104.392 20.7023 103.644ZM32.8665 96.12C34.4358 96.12 35.7778 96.6627 36.8925 97.748C38.0071 98.8333 38.5645 100.278 38.5645 102.082C38.5645 103.886 38.0071 105.353 36.8925 106.482C35.7925 107.611 34.5018 108.176 33.0205 108.176C31.5538 108.176 30.2338 107.531 29.0605 106.24V112.268H26.5965V96.296H29.0605V98.342C30.0285 96.8607 31.2971 96.12 32.8665 96.12ZM29.0165 102.17C29.0165 103.285 29.3538 104.201 30.0285 104.92C30.7031 105.624 31.5245 105.976 32.4925 105.976C33.4605 105.976 34.3038 105.624 35.0225 104.92C35.7411 104.216 36.1005 103.307 36.1005 102.192C36.1005 101.063 35.7485 100.131 35.0445 99.398C34.3405 98.65 33.4971 98.276 32.5145 98.276C31.5318 98.276 30.7031 98.65 30.0285 99.398C29.3538 100.131 29.0165 101.055 29.0165 102.17ZM44.1057 104.92C44.8097 105.624 45.697 105.976 46.7677 105.976C47.8384 105.976 48.7184 105.624 49.4077 104.92C50.1117 104.201 50.4637 103.277 50.4637 102.148C50.4637 101.019 50.1117 100.102 49.4077 99.398C48.7184 98.6793 47.8384 98.32 46.7677 98.32C45.697 98.32 44.8097 98.6793 44.1057 99.398C43.4164 100.102 43.0717 101.019 43.0717 102.148C43.0717 103.277 43.4164 104.201 44.1057 104.92ZM51.1677 106.438C49.9944 107.597 48.5277 108.176 46.7677 108.176C45.0077 108.176 43.541 107.597 42.3677 106.438C41.1944 105.265 40.6077 103.835 40.6077 102.148C40.6077 100.461 41.1944 99.0387 42.3677 97.88C43.541 96.7067 45.0077 96.12 46.7677 96.12C48.5277 96.12 49.9944 96.7067 51.1677 97.88C52.341 99.0387 52.9277 100.461 52.9277 102.148C52.9277 103.835 52.341 105.265 51.1677 106.438ZM64.0673 104.502C64.0673 105.617 63.6639 106.511 62.8573 107.186C62.0506 107.846 61.0166 108.176 59.7553 108.176C58.9046 108.176 58.0173 108.022 57.0933 107.714C56.1839 107.406 55.3773 106.973 54.6733 106.416L55.8613 104.502C57.2253 105.529 58.5453 106.042 59.8213 106.042C60.3786 106.042 60.8186 105.917 61.1413 105.668C61.4639 105.404 61.6253 105.074 61.6253 104.678C61.6253 104.091 60.8479 103.563 59.2933 103.094C59.1759 103.05 59.0879 103.021 59.0293 103.006C56.5946 102.346 55.3773 101.246 55.3773 99.706C55.3773 98.6207 55.7953 97.7553 56.6313 97.11C57.4819 96.45 58.5819 96.12 59.9313 96.12C61.2806 96.12 62.5566 96.516 63.7593 97.308L62.8353 99.134C61.8819 98.5033 60.8479 98.188 59.7333 98.188C59.1466 98.188 58.6699 98.298 58.3033 98.518C57.9366 98.7233 57.7533 99.0387 57.7533 99.464C57.7533 99.8453 57.9439 100.124 58.3253 100.3C58.5893 100.432 58.9559 100.557 59.4253 100.674C59.9093 100.791 60.3346 100.909 60.7013 101.026C61.0679 101.143 61.4199 101.275 61.7573 101.422C62.1093 101.569 62.4833 101.774 62.8793 102.038C63.6713 102.566 64.0673 103.387 64.0673 104.502ZM69.3222 108H66.8582V91.676H69.3222V108ZM83.7853 103.226H74.6113C74.6699 104.077 75.0586 104.766 75.7773 105.294C76.4959 105.807 77.3173 106.064 78.2413 106.064C79.7079 106.064 80.8226 105.602 81.5853 104.678L82.9933 106.218C81.7319 107.523 80.0893 108.176 78.0653 108.176C76.4226 108.176 75.0219 107.633 73.8633 106.548C72.7193 105.448 72.1473 103.981 72.1473 102.148C72.1473 100.3 72.7339 98.8333 73.9073 97.748C75.0806 96.6627 76.4593 96.12 78.0433 96.12C79.6419 96.12 80.9986 96.604 82.1133 97.572C83.2279 98.5253 83.7853 99.8453 83.7853 101.532V103.226ZM74.6113 101.29H81.3213C81.3213 100.307 81.0133 99.552 80.3973 99.024C79.7813 98.496 79.0186 98.232 78.1093 98.232C77.2146 98.232 76.4079 98.5107 75.6893 99.068C74.9706 99.6107 74.6113 100.351 74.6113 101.29ZM88.9589 101.664V108H86.4949V96.296H88.9589V98.43C89.3549 97.7113 89.8976 97.1467 90.5869 96.736C91.2909 96.3253 92.0462 96.12 92.8529 96.12C94.1729 96.12 95.2362 96.5233 96.0429 97.33C96.8642 98.1367 97.2749 99.3027 97.2749 100.828V108H94.8109V101.576C94.8109 99.42 93.9162 98.342 92.1269 98.342C91.2762 98.342 90.5356 98.628 89.9049 99.2C89.2742 99.7573 88.9589 100.579 88.9589 101.664ZM103.182 108H100.718V96.296H103.182V108ZM100.872 93.964C100.564 93.656 100.41 93.2893 100.41 92.864C100.41 92.4387 100.564 92.072 100.872 91.764C101.18 91.456 101.546 91.302 101.972 91.302C102.397 91.302 102.764 91.456 103.072 91.764C103.38 92.072 103.534 92.4387 103.534 92.864C103.534 93.2893 103.38 93.656 103.072 93.964C102.764 94.272 102.397 94.426 101.972 94.426C101.546 94.426 101.18 94.272 100.872 93.964ZM109.219 101.664V108H106.755V91.698H109.219V98.43C109.571 97.7113 110.099 97.1467 110.803 96.736C111.521 96.3253 112.291 96.12 113.113 96.12C114.433 96.12 115.496 96.5233 116.303 97.33C117.124 98.1367 117.535 99.3027 117.535 100.828V108H115.071V101.576C115.071 99.42 114.176 98.342 112.387 98.342C111.536 98.342 110.795 98.628 110.165 99.2C109.534 99.7573 109.219 100.579 109.219 101.664Z" fill="#5E5858"/>
</svg>
